<svg xmlns="http://www.w3.org/2000/svg" width="21.53" height="16.906" viewBox="0 0 21.53 16.906">
  <metadata><?xpacket begin="﻿" id="W5M0MpCehiHzreSzNTczkc9d"?>
<x:xmpmeta xmlns:x="adobe:ns:meta/" x:xmptk="Adobe XMP Core 5.6-c142 79.160924, 2017/07/13-01:06:39        ">
   <rdf:RDF xmlns:rdf="http://www.w3.org/1999/02/22-rdf-syntax-ns#">
      <rdf:Description rdf:about=""/>
   </rdf:RDF>
</x:xmpmeta>
                                                                                                    
                                                                                                    
                                                                                                    
                                                                                                    
                                                                                                    
                                                                                                    
                                                                                                    
                                                                                                    
                                                                                                    
                                                                                                    
                                                                                                    
                                                                                                    
                                                                                                    
                                                                                                    
                                                                                                    
                                                                                                    
                                                                                                    
                                                                                                    
                                                                                                    
                                                                                                    
                           
<?xpacket end="w"?></metadata>
<defs>
    <style>
      .cls-1 {
        fill: #fff;
        fill-rule: evenodd;
      }
    </style>
  </defs>
  <path class="cls-1" d="M1116.45,158.038a1.767,1.767,0,0,1-2.42.429l-7.14-4.815a1.663,1.663,0,0,1-.75-1.451,6.321,6.321,0,0,1-3.48,1.847,6.4,6.4,0,0,1-4.73-.992,6.131,6.131,0,0,1-2.63-3.959,6,6,0,0,1,1.02-4.607,6.445,6.445,0,0,1,8.8-1.56,6.078,6.078,0,0,1,2.08,7.771,1.787,1.787,0,0,1,1.67.168l7.14,4.814A1.661,1.661,0,0,1,1116.45,158.038Zm-10.59-10.813a4.241,4.241,0,0,0-1.83-2.76,4.484,4.484,0,0,0-6.13,1.085,4.219,4.219,0,0,0,1.11,5.973,4.5,4.5,0,0,0,6.14-1.086A4.178,4.178,0,0,0,1105.86,147.225Z" transform="translate(-1095.22 -141.844)"/>
</svg>
